<svg width="240" height="40" viewBox="0 0 240 40" fill="none" xmlns="http://www.w3.org/2000/svg">
<path d="M230.532 9H221.49L212 30H219.565L221.199 25.8878H230.779L232.412 30H240L230.532 9ZM222.878 21.6832L226.011 13.8284L229.122 21.6832H222.878Z" fill="white"/>
<path d="M162 14.3828H170.149V30H176.851V14.3828H185V9H162V14.3828Z" fill="white"/>
<path d="M145.644 21.5908H157.489V17.3861H145.644V14.2904H159.511V9H139V30H160V24.802H145.644V21.5908Z" fill="white"/>
<path d="M135.932 12.7426V9H113.181V14.3828H125.418L113 26.2805V30H136V24.5941H123.65L135.932 12.7426Z" fill="white"/>
<path d="M97.9891 9C89.3871 9 84 12.5246 84 19.9885C84 27.4524 89.3654 31 97.9891 31C106.635 31 112 27.4293 112 19.9885C112 12.5476 106.635 9 97.9891 9ZM97.9891 25.4942C93.6881 25.4942 91.0597 23.9277 91.0597 19.9654C91.0597 15.9801 93.6881 14.4597 97.9891 14.4597C102.268 14.4597 104.94 15.9801 104.94 19.9654C104.94 23.9508 102.268 25.4942 97.9891 25.4942Z" fill="white"/>
<path d="M81.7557 16.6007C81.7557 12.165 78.9728 9 72.3439 9H58V30H64.9231V24.0627H69.3801L74.3575 30H83L77.2081 23.1848C80.1041 21.8911 81.7557 19.165 81.7557 16.6007ZM64.9231 13.9439H71.733C73.8371 13.9439 74.6742 15.099 74.6742 16.5776C74.6742 17.571 74.086 19.396 71.6199 19.396H64.9231V13.9439Z" fill="white"/>
<path d="M203.156 9L194.8 16.67V9H188V30H194.8V24.2013L197.356 21.9373L203.178 30H211.667L202.289 17.571L212 9H203.156Z" fill="white"/>
<path d="M40.3172 10.2716L41.79 10.6671C41.79 10.6671 40.3693 12.5566 40.3172 12.5566C40.2651 12.5566 38.9675 13.428 38.9675 13.428L40.3172 10.2716Z" fill="black"/>
<path d="M38.9675 13.5061C38.951 13.5061 38.932 13.5013 38.9178 13.4895C38.8918 13.4682 38.8823 13.4327 38.8965 13.3995L40.2462 10.2432C40.2604 10.2077 40.3006 10.1887 40.3361 10.2006L41.8089 10.596C41.8326 10.6031 41.8539 10.622 41.861 10.6457C41.8681 10.6694 41.8658 10.6955 41.8492 10.7168C41.8444 10.7215 41.4893 11.1951 41.1317 11.6615C40.4616 12.5353 40.3788 12.6252 40.3314 12.6347C40.2272 12.6844 39.4719 13.184 39.0078 13.4942C38.9959 13.5037 38.9794 13.5061 38.9652 13.5061H38.9675ZM40.3622 10.364L39.1404 13.2219C39.9762 12.6631 40.2059 12.5258 40.2793 12.4903C40.3716 12.4074 41.1459 11.394 41.6621 10.712L40.3622 10.3616V10.364ZM40.3101 12.4808C40.2959 12.4808 40.284 12.4879 40.2793 12.4903C40.2959 12.4832 40.303 12.4808 40.3101 12.4808Z" fill="black"/>
<path d="M27.0242 1.19343L24.8151 13.0586L34.5895 14.7279L36.685 2.97167C36.8602 1.57939 35.932 1.02768 35.3093 0.994532L28.0756 0.47361C27.5878 0.383632 27.1142 0.708025 27.0242 1.1958V1.19343Z" fill="#221F1F"/>
<path d="M27.9122 0.454669C27.9667 0.454669 28.0211 0.459405 28.0756 0.468876L35.3093 0.989798C35.9321 1.02295 36.8603 1.57465 36.685 2.96694L34.5895 14.7232L24.8151 13.0539L27.0243 1.1887C27.1048 0.755383 27.486 0.449933 27.9122 0.449933M27.9122 0.106598C27.3108 0.106598 26.7946 0.535175 26.6857 1.12476L24.4765 12.99C24.4599 13.0799 24.4789 13.1747 24.5333 13.2504C24.5854 13.3262 24.6659 13.3783 24.7583 13.3925L34.5327 15.0618C34.5516 15.0642 34.5706 15.0665 34.5919 15.0665C34.7553 15.0665 34.8997 14.9505 34.9305 14.7824L37.026 3.02613C37.026 3.02613 37.026 3.01429 37.0284 3.00956C37.1373 2.14293 36.8579 1.59833 36.6022 1.29525C36.2849 0.916396 35.8113 0.674877 35.333 0.646463L28.1206 0.125541C28.0519 0.113701 27.9833 0.108966 27.9146 0.108966L27.9122 0.106598Z" fill="#221F1F"/>
<path d="M27.0242 1.14594L24.8151 13.0111L34.5895 14.6805L36.685 2.92419C36.8602 1.5319 35.932 0.980197 35.3093 0.947047L28.0756 0.426124C27.5878 0.336147 27.1142 0.66054 27.0242 1.14831V1.14594Z" fill="#221F1F"/>
<path d="M27.9145 0.409594C27.969 0.409594 28.0235 0.41433 28.0779 0.423801L35.3116 0.944724C35.9344 0.977874 36.8626 1.52958 36.6874 2.92186L34.5918 14.6781L24.8174 13.0088L27.0266 1.14362C27.1071 0.710309 27.4883 0.404859 27.9145 0.404859M27.9145 0.0615234C27.3131 0.0615234 26.7969 0.490101 26.688 1.07969L24.4788 12.9449C24.4622 13.0349 24.4812 13.1296 24.5357 13.2053C24.5901 13.2811 24.6683 13.3332 24.7606 13.3474L34.535 15.0167C34.5539 15.0191 34.5729 15.0215 34.5942 15.0215C34.7576 15.0215 34.902 14.9055 34.9328 14.7373L37.0283 2.98106C37.0283 2.98106 37.0283 2.96922 37.0307 2.96448C37.1396 2.09786 36.8602 1.55326 36.6045 1.25017C36.2872 0.871321 35.8136 0.629803 35.3353 0.601389L28.1182 0.0828339C28.0495 0.0709948 27.9808 0.0662591 27.9122 0.0662591L27.9145 0.0615234Z" fill="#221F1F"/>
<path d="M26.6477 1.08689L24.1663 12.0831L33.9407 13.7524L36.0362 1.99614C36.1238 1.51074 35.797 1.03954 35.3116 0.949559L27.7014 0.367073C27.2137 0.277095 26.7401 0.601488 26.6501 1.08926L26.6477 1.08689Z" fill="#E9E6D0"/>
<path d="M27.5356 0.348071C27.5901 0.348071 27.6446 0.352807 27.699 0.362278L35.3092 0.944764C35.7946 1.03474 36.1214 1.50594 36.0338 1.99135L33.9383 13.7476L24.1638 12.0783L26.6453 1.0821C26.7258 0.648785 27.1071 0.343335 27.5333 0.343335M27.5333 0C26.9342 0 26.4204 0.426209 26.3067 1.01106L23.8252 12.0002C23.8039 12.0925 23.8229 12.1896 23.875 12.2677C23.9271 12.3459 24.0099 12.4003 24.1023 12.4145L33.8767 14.0839C33.8956 14.0862 33.9146 14.0886 33.9359 14.0886C34.0993 14.0886 34.2437 13.9726 34.2745 13.8044L36.37 2.04817C36.4908 1.37571 36.0409 0.726924 35.3684 0.603797C35.3566 0.603797 35.3447 0.599061 35.3329 0.599061L27.7416 0.0213105C27.673 0.00947132 27.6043 0.00473566 27.5356 0.00473566L27.5333 0Z" fill="#221F1F"/>
<path d="M34.1372 3.09713C34.1372 3.39785 33.8933 3.63937 33.595 3.63937C33.2966 3.63937 33.0527 3.39548 33.0527 3.09713C33.0527 2.79879 33.2966 2.5549 33.595 2.5549C33.8933 2.5549 34.1372 2.79879 34.1372 3.09713Z" fill="#221F1F"/>
<path d="M33.5949 2.55488C33.8956 2.55488 34.1372 2.79877 34.1372 3.09712C34.1372 3.39546 33.8933 3.63935 33.5949 3.63935C33.2966 3.63935 33.0527 3.39546 33.0527 3.09712C33.0527 2.79877 33.2966 2.55488 33.5949 2.55488ZM33.5949 2.21155C33.1071 2.21155 32.7094 2.60934 32.7094 3.09712C32.7094 3.58489 33.1071 3.98268 33.5949 3.98268C34.0827 3.98268 34.4805 3.58489 34.4805 3.09712C34.4805 2.60934 34.0827 2.21155 33.5949 2.21155Z" fill="#221F1F"/>
<path d="M33.3249 3.36709C33.6244 3.36709 33.8672 3.12432 33.8672 2.82486C33.8672 2.52539 33.6244 2.28262 33.3249 2.28262C33.0255 2.28262 32.7827 2.52539 32.7827 2.82486C32.7827 3.12432 33.0255 3.36709 33.3249 3.36709Z" fill="#FFBBA4"/>
<path d="M33.325 2.28261C33.6257 2.28261 33.8673 2.52649 33.8673 2.82484C33.8673 3.12319 33.6234 3.36707 33.325 3.36707C33.0267 3.36707 32.7828 3.12319 32.7828 2.82484C32.7828 2.52649 33.0267 2.28261 33.325 2.28261ZM33.325 1.93927C32.8372 1.93927 32.4395 2.33707 32.4395 2.82484C32.4395 3.31261 32.8372 3.71041 33.325 3.71041C33.8128 3.71041 34.2106 3.31261 34.2106 2.82484C34.2106 2.33707 33.8128 1.93927 33.325 1.93927Z" fill="#221F1F"/>
<path d="M34.1372 3.14215C34.1372 3.44286 33.8933 3.68438 33.595 3.68438C33.2966 3.68438 33.0527 3.44049 33.0527 3.14215C33.0527 2.8438 33.2966 2.59991 33.595 2.59991C33.8933 2.59991 34.1372 2.8438 34.1372 3.14215Z" fill="#221F1F"/>
<path d="M33.5949 2.59984C33.8956 2.59984 34.1372 2.84372 34.1372 3.14207C34.1372 3.44042 33.8933 3.6843 33.5949 3.6843C33.2966 3.6843 33.0527 3.44042 33.0527 3.14207C33.0527 2.84372 33.2966 2.59984 33.5949 2.59984ZM33.5949 2.2565C33.1071 2.2565 32.7094 2.6543 32.7094 3.14207C32.7094 3.62984 33.1071 4.02764 33.5949 4.02764C34.0827 4.02764 34.4805 3.62984 34.4805 3.14207C34.4805 2.6543 34.0827 2.2565 33.5949 2.2565Z" fill="#221F1F"/>
<path d="M38.2785 4.0963L33.299 14.7847L38.1838 16.956L42.7963 6.10185L42.6613 0.76239L38.2785 4.0963Z" fill="#FF5400"/>
<path d="M42.6614 0.762421L42.7964 6.10188L38.1839 16.956L33.299 14.7847L38.2786 4.09396L42.6614 0.760053M42.6614 0.416718C42.588 0.416718 42.5146 0.440396 42.4531 0.487752L38.0702 3.82166C38.0252 3.85481 37.9897 3.8998 37.966 3.94952L32.9865 14.6403C32.9486 14.7231 32.9439 14.8202 32.977 14.9055C33.0102 14.9907 33.0741 15.0617 33.1593 15.0996L38.0442 17.2709C38.0891 17.2899 38.1365 17.3017 38.1839 17.3017C38.2265 17.3017 38.2691 17.2946 38.3094 17.278C38.3946 17.2449 38.4633 17.1786 38.4988 17.0933L43.1113 6.23921C43.1303 6.19422 43.1397 6.1445 43.1397 6.09714L43.0048 0.757685C43.0024 0.629822 42.9266 0.511431 42.8106 0.456971C42.7632 0.433292 42.7135 0.423821 42.6614 0.423821V0.416718Z" fill="#221F1F"/>
<path d="M38.2786 4.09645L38.4135 6.60161L40.4901 5.4248L40.76 7.86603L42.7964 6.102L42.6614 0.762543L38.2786 4.09645Z" fill="#E9E6D0"/>
<path d="M40.76 8.03885C40.7387 8.03885 40.7174 8.03411 40.6984 8.02701C40.6392 8.00333 40.5966 7.94887 40.5895 7.88494L40.348 5.7018L38.4987 6.75075C38.4466 6.77916 38.3827 6.78153 38.3306 6.75075C38.2785 6.72233 38.2453 6.66787 38.2406 6.60868L38.1056 4.10115C38.1033 4.04432 38.1269 3.98986 38.1743 3.95434L42.5572 0.620436C42.6092 0.582551 42.6779 0.575448 42.7347 0.601494C42.7939 0.629908 42.8295 0.686736 42.8318 0.753035L42.9668 6.09249C42.9668 6.14458 42.9455 6.19194 42.9076 6.22746L40.8713 7.99149C40.8405 8.01991 40.8002 8.03411 40.7576 8.03411L40.76 8.03885ZM40.4877 5.25191C40.5137 5.25191 40.5421 5.25902 40.5658 5.27085C40.6179 5.2969 40.6511 5.34663 40.6582 5.40582L40.8926 7.52266L42.6187 6.02619L42.4932 1.10347L38.4513 4.17692L38.5674 6.31507L40.4024 5.27322C40.4285 5.25902 40.4569 5.25191 40.4877 5.25191Z" fill="#221F1F"/>
<path d="M40.3693 2.41998C40.8973 3.03088 42.4624 3.62047 42.7963 3.56838L42.8105 0.454681L40.3693 2.41998Z" fill="#E9E6D0"/>
<path d="M42.7608 3.81693C42.2257 3.81693 40.7079 3.18708 40.1822 2.58092C40.1373 2.52883 40.1159 2.46253 40.123 2.39623C40.1301 2.32993 40.1633 2.26837 40.2154 2.22574L42.6566 0.260446C42.7324 0.20125 42.8342 0.189411 42.9195 0.229664C43.0047 0.272285 43.0615 0.359894 43.0592 0.454608L43.0449 3.5683C43.0449 3.69143 42.955 3.79325 42.8342 3.81219C42.8129 3.81456 42.7869 3.81693 42.7608 3.81693ZM40.7458 2.43411C41.2407 2.84138 42.1239 3.18945 42.5501 3.29127L42.5595 0.973162L40.7458 2.43411Z" fill="#221F1F"/>
<path d="M34.3952 15.4453C34.3716 15.4453 34.3455 15.4406 34.3242 15.4288C34.239 15.3885 34.2011 15.2867 34.2413 15.2014L38.2596 6.53045C38.2998 6.44521 38.4016 6.40733 38.4869 6.44758C38.5721 6.48783 38.61 6.58965 38.5697 6.67489L34.5515 15.3459C34.5231 15.4075 34.4592 15.4453 34.3952 15.4453Z" fill="#221F1F"/>
<path d="M38.9675 11.993C38.9438 11.993 38.9202 11.9883 38.8965 11.9788C38.8089 11.9385 38.771 11.8367 38.8112 11.7515L40.6037 7.79483C40.6439 7.70722 40.7458 7.66933 40.831 7.70959C40.9186 7.74984 40.9565 7.85166 40.9162 7.9369L39.1238 11.8935C39.0954 11.9575 39.0315 11.9954 38.9675 11.9954V11.993Z" fill="#221F1F"/>
<path d="M38.2785 14.0319L17.2877 13.3073L16.0659 28.2176C16.0659 28.2176 37.7576 30.4481 37.5634 30.4481C37.3693 30.4481 38.2785 14.0295 38.2785 14.0295V14.0319Z" fill="#DDC700"/>
<path d="M37.5635 30.6208C37.5493 30.6208 37.5374 30.6208 37.5232 30.6161C37.0331 30.5498 23.2997 29.1338 16.047 28.3879C15.9546 28.3785 15.886 28.2956 15.8931 28.2032L17.1149 13.293C17.122 13.2007 17.2001 13.132 17.2925 13.1344L38.2833 13.8589C38.3306 13.8589 38.3733 13.8802 38.404 13.9158C38.4348 13.9489 38.4514 13.9939 38.449 14.0412C38.1057 20.2521 37.6321 29.6145 37.715 30.3627C37.7292 30.3864 37.7363 30.4195 37.7363 30.4598C37.7316 30.5521 37.6558 30.6232 37.5635 30.6232V30.6208ZM37.5729 30.2775C37.599 30.2822 37.6274 30.2917 37.6534 30.3059C37.6298 30.2917 37.6037 30.2798 37.5729 30.2775ZM16.2506 28.0635C17.1978 28.1606 22.0163 28.6579 26.8325 29.1551C29.9533 29.4771 32.4395 29.7352 34.2225 29.9223C35.2312 30.0265 36.0694 30.1164 36.659 30.178C36.9526 30.2088 37.1846 30.2348 37.3409 30.2514C37.3504 30.2514 37.3575 30.2514 37.3669 30.2538C37.3551 29.9389 37.3669 29.2711 37.4238 27.796C37.4759 26.425 37.5611 24.5307 37.6795 22.1605C37.8547 18.6017 38.0512 15.0215 38.0962 14.1975L17.444 13.4848L16.2506 28.0659V28.0635Z" fill="#221F1F"/>
<path d="M37.5635 30.526C39.9124 29.6168 41.4586 25.0966 41.8185 24.3081C42.1784 23.5196 42.4033 11.4579 42.1547 10.7049C40.0071 13.75 38.2786 13.6766 38.2786 13.6766" fill="#221F1F"/>
<path d="M37.5634 30.6019C37.5326 30.6019 37.5042 30.5829 37.4924 30.5521C37.4782 30.5119 37.4971 30.4693 37.535 30.4527C39.5595 29.6689 41.011 26.0817 41.558 24.7296C41.6385 24.5307 41.7024 24.3721 41.7474 24.2726C41.8989 23.9411 42.0552 21.2134 42.1357 17.4864C42.2044 14.3041 42.1925 11.6261 42.1097 10.892C41.4893 11.7468 40.5516 12.8242 39.4435 13.3972C38.7331 13.7642 38.2903 13.75 38.2714 13.75C38.2288 13.75 38.1956 13.7121 38.198 13.6695C38.2004 13.6269 38.2335 13.5937 38.2785 13.5961C38.2832 13.5961 38.7095 13.6079 39.3867 13.2528C40.5256 12.6584 41.4846 11.5124 42.0883 10.6553C42.1049 10.6316 42.1333 10.6197 42.1617 10.6245C42.1902 10.6292 42.2138 10.6482 42.2233 10.6766C42.3606 11.0933 42.3512 14.5006 42.2872 17.4912C42.2209 20.5173 42.0812 23.9056 41.8847 24.3366C41.8397 24.4337 41.7782 24.5899 41.6977 24.7865C41.1436 26.1527 39.6755 29.785 37.5871 30.5948C37.5776 30.5971 37.5682 30.5995 37.5587 30.5995L37.5634 30.6019Z" fill="#221F1F"/>
<path d="M41.7734 11.5078C41.9108 11.2165 42.2873 10.1676 41.5627 10.1084L41.3591 10.5843C41.3591 10.5843 41.2359 10.8684 41.0868 11.1881C40.9376 11.5078 40.3669 12.7509 38.7923 13.2718C37.9494 13.5512 36.1759 13.4423 34.7434 13.4257C33.1095 13.4068 17.7542 12.9142 17.7542 12.9142L17.3777 13.3026L32.1932 13.814C32.1932 13.814 37.5563 14.0887 38.3661 14.0271C40.1302 13.8922 41.2644 12.578 41.7711 11.5054L41.7734 11.5078Z" fill="#DDC700"/>
<path d="M41.5603 10.1083C42.2849 10.1675 41.9084 11.2165 41.7711 11.5077C41.2643 12.5803 40.1301 13.8945 38.3661 14.0294C38.2832 14.0365 38.1554 14.0389 37.9896 14.0389C36.5216 14.0389 32.1932 13.8163 32.1932 13.8163L17.3777 13.3049L17.7542 12.9166C17.7542 12.9166 33.1095 13.4091 34.7433 13.428C35.3992 13.4351 36.1261 13.4612 36.8033 13.4612C37.606 13.4612 38.3353 13.4233 38.7923 13.2717C40.3669 12.7508 40.9399 11.5077 41.0868 11.188C41.2336 10.8684 41.3591 10.5843 41.3591 10.5843L41.5627 10.1083M41.5627 9.76498C41.4254 9.76498 41.2999 9.84549 41.2454 9.97335L41.0441 10.4493C41.0347 10.473 40.9139 10.7453 40.7766 11.046C40.3409 11.9931 39.6376 12.6324 38.6881 12.9473C38.224 13.1013 37.3929 13.1178 36.8057 13.1178C36.4103 13.1178 35.9912 13.1084 35.5863 13.0989C35.3069 13.0918 35.0204 13.087 34.7504 13.0823C33.1379 13.0634 17.9199 12.578 17.7684 12.5732C17.7636 12.5732 17.7613 12.5732 17.7565 12.5732C17.6642 12.5732 17.5742 12.6111 17.5103 12.6774L17.1338 13.0657C17.0391 13.1628 17.0107 13.3073 17.0604 13.4328C17.1101 13.5582 17.2309 13.6435 17.3682 13.6482L32.1813 14.1597C32.3992 14.1715 36.5405 14.3823 37.992 14.3823C38.1743 14.3823 38.3069 14.3799 38.3969 14.3728C39.2706 14.3065 40.0686 13.9726 40.7671 13.383C41.307 12.926 41.7758 12.3128 42.086 11.6545C42.1617 11.4935 42.524 10.6648 42.2209 10.1391C42.131 9.98519 41.951 9.79577 41.5935 9.76498C41.584 9.76498 41.5745 9.76498 41.5651 9.76498H41.5627Z" fill="#221F1F"/>
<path d="M40.4474 17.6687C40.2035 17.8416 39.9407 18.0002 39.7536 18.2323C39.4387 18.6206 39.3771 19.151 39.3511 19.6506C39.2848 20.9482 39.3748 22.2481 39.299 23.5457C39.2138 24.9995 38.9249 26.4415 38.9296 27.8978C38.9296 28.0019 38.932 28.1061 38.9722 28.2008C39.0456 28.3761 39.2327 28.4802 39.4198 28.5205C40.1751 28.6744 40.8144 27.9925 41.2832 27.3816C42.3819 25.9443 42.5382 25.6767 42.7702 23.9624C42.9005 23.0153 42.9265 19.338 43.0094 17.6948C43.0425 17.0247 43.0425 15.7082 42.2564 15.9734C41.6526 16.177 41.1057 17.1975 40.445 17.6711L40.4474 17.6687Z" fill="#DDC700"/>
<path d="M39.6377 28.7123C39.5525 28.7123 39.4696 28.7028 39.3867 28.6862C39.1144 28.6294 38.9013 28.4731 38.8137 28.2648C38.764 28.144 38.7592 28.0209 38.7569 27.8954C38.7521 27.0264 38.854 26.1503 38.9534 25.305C39.0221 24.7225 39.0907 24.1211 39.1263 23.5315C39.1641 22.8685 39.1594 22.1913 39.1547 21.5354C39.1499 20.915 39.1452 20.2733 39.1784 19.6388C39.2068 19.0965 39.2778 18.5377 39.6188 18.121C39.7869 17.915 40.0024 17.7658 40.2084 17.6237C40.2557 17.5906 40.3007 17.5598 40.3481 17.5267C40.6204 17.3325 40.8808 17.0294 41.1318 16.7382C41.4846 16.3262 41.8208 15.9379 42.2044 15.8076C42.4886 15.7105 42.6804 15.791 42.7917 15.8763C43.1066 16.1131 43.2344 16.7098 43.1823 17.7019C43.1492 18.3388 43.1255 19.267 43.1018 20.252C43.0616 21.7982 43.0213 23.3965 42.9408 23.9837C42.704 25.7194 42.5454 26.0106 41.4183 27.4834C41.2218 27.7415 40.9187 28.1132 40.5588 28.3737C40.251 28.5986 39.9408 28.7099 39.6353 28.7099L39.6377 28.7123ZM40.4475 17.6664L40.547 17.8061C40.4996 17.8392 40.4522 17.8724 40.4049 17.9055C40.2084 18.0405 40.0237 18.1683 39.8863 18.3365C39.5951 18.694 39.5454 19.2055 39.5241 19.6553C39.4933 20.2781 39.498 20.915 39.5004 21.533C39.5051 22.1937 39.5098 22.878 39.4696 23.5528C39.4341 24.1542 39.363 24.7604 39.2967 25.3476C39.1997 26.1835 39.0978 27.0453 39.1026 27.8954C39.1026 27.9877 39.1049 28.0706 39.131 28.1345C39.1736 28.2364 39.2944 28.3192 39.4554 28.35C39.5169 28.3619 39.5785 28.369 39.6401 28.369C40.232 28.369 40.7506 27.7936 41.1484 27.275C42.2257 25.8662 42.3726 25.6199 42.6022 23.9364C42.6804 23.3681 42.7206 21.7793 42.7585 20.2426C42.7846 19.2552 42.8082 18.3223 42.839 17.6829C42.858 17.2946 42.8745 16.3688 42.5833 16.151C42.5407 16.1178 42.4673 16.0823 42.3134 16.1344C42.0174 16.2338 41.7119 16.589 41.3899 16.9631C41.1247 17.2709 40.85 17.5906 40.5446 17.8084L40.4451 17.6687L40.4475 17.6664Z" fill="#221F1F"/>
<path d="M40.7696 23.155C40.7033 23.155 40.6393 23.1384 40.5801 23.0958C40.3978 22.9585 40.4286 22.6956 40.4902 22.1676C40.528 21.8314 40.5778 21.4146 40.5896 20.8937C40.6062 20.11 40.5896 19.4991 40.4594 19.0705C40.3315 18.6561 40.1137 18.4572 39.7277 18.4004C39.633 18.3862 39.5691 18.2986 39.5833 18.2062C39.5975 18.1115 39.6851 18.0476 39.7774 18.0618C40.9022 18.2275 40.9661 19.3949 40.9329 20.9056C40.9211 21.443 40.869 21.8858 40.8311 22.2102C40.8027 22.447 40.7719 22.7146 40.7909 22.8117C40.8122 22.8069 40.8501 22.7974 40.9093 22.7738C41.3876 22.5725 42.4176 21.1281 42.7751 20.5859C42.8272 20.5078 42.9338 20.4841 43.0143 20.5362C43.0948 20.5883 43.1161 20.6948 43.064 20.7753C42.9266 20.9837 41.7048 22.814 41.0442 23.0911C40.9613 23.1266 40.8643 23.1597 40.7696 23.1597V23.155Z" fill="#221F1F"/>
<path d="M19.8616 12.9877C21.4859 9.54485 24.4457 3.97097 25.7646 3.49741C27.0835 3.02384 31.2579 3.53766 31.928 4.47532C32.5981 5.41298 31.5373 13.1818 31.5373 13.1818L28.954 13.0942C28.954 13.0942 30.9193 5.70659 30.4079 5.2496C29.8964 4.79261 27.0598 4.26458 26.4441 4.68843C25.8285 5.11227 22.3052 13.0634 22.3052 13.0634L19.8616 12.9853V12.9877Z" fill="#DDC700"/>
<path d="M31.5373 13.3522H31.5326L28.9493 13.2646C28.8972 13.2646 28.8475 13.2362 28.8167 13.196C28.7859 13.1533 28.774 13.0989 28.7883 13.0492C28.793 13.0302 29.2689 11.2425 29.6857 9.3956C30.4623 5.95988 30.3297 5.44369 30.2895 5.37266C30.0669 5.18086 29.2926 4.94408 28.4402 4.80911C27.5357 4.66468 26.7732 4.67415 26.5436 4.83042C26.4394 4.90146 26.0108 5.46264 24.3012 9.10909C23.3565 11.1241 22.4733 13.1155 22.4638 13.1344C22.4354 13.1983 22.3714 13.2386 22.3004 13.2362L19.8568 13.1581C19.8 13.1581 19.7455 13.1249 19.7147 13.0752C19.6839 13.0255 19.6816 12.9639 19.7053 12.9118C20.1694 11.9268 21.4006 9.38139 22.7787 7.03961C23.3778 6.02144 23.9153 5.19507 24.377 4.58891C24.924 3.86909 25.3596 3.45708 25.7053 3.33159C26.3565 3.09717 27.6943 3.07823 29.1126 3.28186C29.8419 3.38605 31.5894 3.70334 32.0653 4.37107C32.179 4.52971 32.5223 5.00801 32.1529 9.19197C31.973 11.233 31.7078 13.1818 31.7054 13.2031C31.6936 13.2883 31.6202 13.3522 31.5349 13.3522H31.5373ZM29.1766 12.9284L31.3881 13.0042C31.4544 12.5046 31.6628 10.866 31.8143 9.16355C31.9209 7.94412 32.134 5.05774 31.7907 4.5747C31.5207 4.19821 30.4528 3.82646 29.0677 3.62757C27.7227 3.4334 26.4181 3.44524 25.8261 3.66072C25.1039 3.92118 23.7945 6.00013 23.0794 7.21957C21.8079 9.38139 20.6619 11.7184 20.1338 12.829L22.201 12.8953C22.3951 12.4572 23.1718 10.7216 23.9934 8.96939C25.9279 4.84463 26.2357 4.63389 26.3518 4.55339C26.8016 4.24557 28.0021 4.39474 28.497 4.47525C29.2287 4.59127 30.1971 4.83279 30.5262 5.1264C30.7322 5.30873 30.8151 5.95278 30.0432 9.38613C29.7022 10.9015 29.3187 12.398 29.1766 12.9355V12.9284Z" fill="#221F1F"/>
<path d="M30.5854 5.55973C30.4457 4.52735 29.8467 4.32135 28.8285 4.11535C27.8719 3.92119 26.4749 4.06089 25.9303 4.57945C25.2578 5.21876 22.523 9.01202 20.5435 13.0113L23.5032 13.7027C23.5032 13.7027 25.2057 6.0546 26.4299 5.11458C27.1734 4.54393 29.8964 4.79492 30.4078 5.25191C30.4386 5.27796 30.5688 5.47685 30.5854 5.5621V5.55973Z" fill="#221F1F"/>
<path d="M23.5056 13.7785C23.5056 13.7785 23.4938 13.7785 23.4891 13.7785L20.5293 13.0871C20.5056 13.0823 20.4867 13.0658 20.4772 13.0444C20.4677 13.0231 20.4677 12.9995 20.4772 12.9782C22.4875 8.91259 25.2105 5.16194 25.8782 4.525C26.4418 3.98987 27.8648 3.84306 28.8427 4.04196C29.8443 4.24559 30.5121 4.46107 30.6612 5.55264C30.666 5.59289 30.6376 5.63077 30.5973 5.63788C30.557 5.64498 30.5168 5.61657 30.5097 5.57631C30.4979 5.51475 30.3866 5.33953 30.3558 5.30875C29.8775 4.88254 27.1947 4.62681 26.4749 5.17615C25.2863 6.08777 23.5933 13.6435 23.5767 13.7193C23.5719 13.7382 23.5601 13.7572 23.5435 13.7666C23.5317 13.7737 23.5175 13.7785 23.5033 13.7785H23.5056ZM20.6572 12.9592L23.4488 13.6104C23.6382 12.7674 25.2058 5.9599 26.3849 5.05302C26.7306 4.78783 27.5262 4.66233 28.5112 4.71916C29.2311 4.76178 30.0787 4.91095 30.415 5.15721C30.1971 4.54394 29.6952 4.36872 28.812 4.18877C27.8719 3.99697 26.5104 4.12957 25.9824 4.63392C25.2886 5.29454 22.5727 9.10912 20.6548 12.9592H20.6572Z" fill="#221F1F"/>
<path d="M33.3226 3.41448C33.6221 3.41448 33.8649 3.17172 33.8649 2.87225C33.8649 2.57278 33.6221 2.33002 33.3226 2.33002C33.0232 2.33002 32.7804 2.57278 32.7804 2.87225C32.7804 3.17172 33.0232 3.41448 33.3226 3.41448Z" fill="#FFBBA4"/>
<path d="M33.3227 2.33C33.6234 2.33 33.8649 2.57389 33.8649 2.87223C33.8649 3.17058 33.621 3.41447 33.3227 3.41447C33.0244 3.41447 32.7805 3.17058 32.7805 2.87223C32.7805 2.57389 33.0244 2.33 33.3227 2.33ZM33.3227 1.98666C32.8349 1.98666 32.4371 2.38446 32.4371 2.87223C32.4371 3.36001 32.8349 3.7578 33.3227 3.7578C33.8105 3.7578 34.2083 3.36001 34.2083 2.87223C34.2083 2.38446 33.8105 1.98666 33.3227 1.98666Z" fill="#221F1F"/>
<path d="M36.048 30.0928C36.048 30.0928 36.4742 23.927 33.2066 17.6096C33.2066 17.6096 34.1679 27.8741 32.6501 29.7708L36.048 30.0928Z" fill="#221F1F"/>
<path d="M36.048 30.2656C36.048 30.2656 36.0362 30.2656 36.0315 30.2656L32.6336 29.9436C32.5697 29.9365 32.5152 29.8986 32.4915 29.8394C32.4679 29.7802 32.4773 29.7139 32.5152 29.6642C32.932 29.1457 33.4079 27.564 33.3274 22.9822C33.2777 20.2166 33.0385 17.6522 33.0361 17.6262C33.029 17.5433 33.0788 17.4675 33.1593 17.4462C33.2374 17.4225 33.3227 17.4581 33.3605 17.5315C35.0583 20.818 35.7473 24.0596 36.0243 26.2001C36.3251 28.5206 36.2232 30.0904 36.2209 30.107C36.2185 30.1544 36.1948 30.197 36.1617 30.2254C36.1309 30.2514 36.0906 30.2656 36.0504 30.2656H36.048ZM32.9485 29.6287L35.8846 29.9057C35.9012 29.4393 35.9202 28.0778 35.681 26.2332C35.43 24.2987 34.8381 21.4526 33.4529 18.4975C33.5287 19.4944 33.6376 21.1945 33.6707 22.9775C33.7323 26.4085 33.4908 28.6413 32.9485 29.6287Z" fill="#221F1F"/>
<path d="M34.5279 22.8401C34.4853 32.3612 26.7211 40.0448 17.1859 39.9998C7.65064 39.9572 -0.0424447 32.2025 0.000176243 22.6815C0.045165 13.1604 7.80928 5.47919 17.3422 5.52181C26.8774 5.56443 34.5705 13.3191 34.5279 22.8401Z" fill="#221F1F"/>
<path d="M9.0595 18.7675C9.64436 18.8953 10.2955 18.1803 10.5157 17.1716C10.7359 16.1629 10.4423 15.2418 9.85746 15.1139C9.46204 15.0287 9.03819 15.327 8.73511 15.8385C9.00978 15.9758 9.13054 16.3049 9.00741 16.5891C8.89612 16.8472 8.62382 16.9821 8.35863 16.9324C8.22366 17.8511 8.51727 18.6491 9.05714 18.7675H9.0595ZM6.24889 16.6506C6.71772 14.1455 8.16446 12.3222 9.48098 12.578C10.7975 12.8337 11.4842 15.0713 11.0153 17.5765C10.5465 20.0816 9.09976 21.9049 7.78324 21.6491C6.46673 21.3934 5.78006 19.1558 6.24889 16.6506ZM29.0866 18.7604C14.3469 28.6153 4.19361 23.6121 4.19361 23.6121C4.04918 27.0312 9.90719 37.5538 16.9183 37.6912C23.9271 37.8261 29.089 18.7604 29.089 18.7604H29.0866ZM7.6909 22.054C9.23472 22.3476 10.9064 20.3729 11.4273 17.6451C11.9483 14.915 11.1171 12.4643 9.57569 12.1707C8.03187 11.8771 6.36018 13.8519 5.83926 16.5796C5.31833 19.3097 6.14944 21.7604 7.6909 22.054ZM12.9783 20.6523C13.4945 20.0769 14.0888 19.5157 14.7589 18.9972C17.7944 16.6506 21.1307 16.0705 22.2104 17.6972C22.6295 18.3271 22.6437 19.1961 22.3336 20.1574C23.418 18.372 23.7685 16.7193 23.0865 15.7982C21.9642 14.2781 18.4787 15.3223 15.3011 18.1282C14.3919 18.9332 13.6105 19.7951 12.9783 20.6523ZM16.3737 13.1841C18.8031 11.5314 23.006 10.6245 25.2436 14.0697C23.8798 6.16115 18.0431 10.724 16.3737 13.1841ZM34.0638 22.8401C34.0212 32.1055 26.4654 39.5831 17.1859 39.5405C7.90637 39.4978 0.461914 31.9516 0.461914 22.6862C0.461914 16.6767 3.45959 12.3696 6.31282 10.0491C9.80064 7.21246 12.1827 9.39323 13.0185 11.0436C12.9167 10.3427 12.6349 8.33481 11.8559 6.88333C13.575 6.29611 15.4195 5.97882 17.3398 5.98593C26.6193 6.02855 34.1064 13.5748 34.0662 22.8401H34.0638ZM23.4749 31.3075C21.6516 34.5751 19.3832 37.2484 16.8497 37.201C15.2798 37.1702 13.7739 36.5712 12.3934 35.6406C12.8599 34.8427 15.6066 30.8481 23.4749 31.3099" fill="#05BC52"/>
</svg>
